# WaveFront *.obj file (generated by Autodesk ATF)

mtllib EyeBrows3.mtl

g Solid10

v 0.000000 0.009322 -0.001781
v 0.000000 0.009322 0.001781
v 0.000000 0.010280 -0.001335
v 0.000000 0.010280 0.001335
v 0.000000 0.013548 -0.010844
v 0.000000 0.013548 0.010844
v 0.000000 0.014506 -0.010398
v 0.000000 0.014506 0.010398
v 0.001000 0.009322 -0.001781
v 0.001000 0.009322 0.001781
v 0.001000 0.010280 -0.001335
v 0.001000 0.010280 0.001335
v 0.001000 0.013548 -0.010844
v 0.001000 0.013548 0.010844
v 0.001000 0.014506 -0.010398
v 0.001000 0.014506 0.010398
vt 0.000000 0.000000 0.000000
vt 0.105666 0.000000 0.000000
vt 0.105666 0.100000 0.000000
vt 0.000000 0.100000 0.000000
vt 0.000000 0.000000 0.000000
vt 1.000000 0.000000 0.000000
vt 1.000000 0.100000 0.000000
vt 0.000000 0.100000 0.000000
vt 0.000000 0.000000 0.000000
vt 0.105666 0.000000 0.000000
vt 0.105666 0.100000 0.000000
vt 0.000000 0.100000 0.000000
vt 0.000000 0.000000 0.000000
vt 1.000000 0.000000 0.000000
vt 1.000000 0.100000 0.000000
vt 0.000000 0.100000 0.000000
vt 0.430826 0.259192 0.000000
vt -0.475482 -0.163426 0.000000
vt -0.430826 -0.259192 0.000000
vt 0.475482 0.163426 0.000000
vt 0.475482 -0.163426 0.000000
vt -0.430826 0.259192 0.000000
vt -0.475482 0.163426 0.000000
vt 0.430826 -0.259192 0.000000
vt 0.000000 0.000000 0.000000
vt 1.000000 0.000000 0.000000
vt 1.000000 0.100000 0.000000
vt 0.000000 0.100000 0.000000
vt 0.000000 0.000000 0.000000
vt 0.105666 0.000000 0.000000
vt 0.105666 0.100000 0.000000
vt 0.000000 0.100000 0.000000
vt 0.000000 0.000000 0.000000
vt 1.000000 0.000000 0.000000
vt 1.000000 0.100000 0.000000
vt 0.000000 0.100000 0.000000
vt 0.000000 0.000000 0.000000
vt 0.105666 0.000000 0.000000
vt 0.105666 0.100000 0.000000
vt 0.000000 0.100000 0.000000
vt 0.430826 -0.259192 0.000000
vt 0.475482 -0.163426 0.000000
vt -0.430826 0.259192 0.000000
vt -0.475482 0.163426 0.000000
vt -0.475482 -0.163426 0.000000
vt -0.430826 -0.259192 0.000000
vt 0.475482 0.163426 0.000000
vt 0.430826 0.259192 0.000000
vn 0.000000 42.261827 -90.630782
vn 0.000000 42.261827 -90.630782
vn 0.000000 42.261827 -90.630782
vn 0.000000 42.261827 -90.630782
vn 0.000000 -90.630782 -42.261827
vn 0.000000 -90.630782 -42.261827
vn 0.000000 -90.630782 -42.261827
vn 0.000000 -90.630782 -42.261827
vn 0.000000 -42.261827 90.630782
vn 0.000000 -42.261827 90.630782
vn 0.000000 -42.261827 90.630782
vn 0.000000 -42.261827 90.630782
vn 0.000000 90.630782 42.261827
vn 0.000000 90.630782 42.261827
vn 0.000000 90.630782 42.261827
vn 0.000000 90.630782 42.261827
vn 100.000000 0.000000 0.000000
vn 100.000000 0.000000 0.000000
vn 100.000000 0.000000 0.000000
vn 100.000000 0.000000 0.000000
vn -100.000000 0.000000 0.000000
vn -100.000000 0.000000 0.000000
vn -100.000000 0.000000 0.000000
vn -100.000000 0.000000 0.000000
vn 0.000000 -90.630782 42.261827
vn 0.000000 -90.630782 42.261827
vn 0.000000 -90.630782 42.261827
vn 0.000000 -90.630782 42.261827
vn 0.000000 42.261827 90.630782
vn 0.000000 42.261827 90.630782
vn 0.000000 42.261827 90.630782
vn 0.000000 42.261827 90.630782
vn 0.000000 90.630782 -42.261827
vn 0.000000 90.630782 -42.261827
vn 0.000000 90.630782 -42.261827
vn 0.000000 90.630782 -42.261827
vn 0.000000 -42.261827 -90.630782
vn 0.000000 -42.261827 -90.630782
vn 0.000000 -42.261827 -90.630782
vn 0.000000 -42.261827 -90.630782
vn 100.000000 0.000000 0.000000
vn 100.000000 0.000000 0.000000
vn 100.000000 0.000000 0.000000
vn 100.000000 0.000000 0.000000
vn -100.000000 0.000000 0.000000
vn -100.000000 0.000000 0.000000
vn -100.000000 0.000000 0.000000
vn -100.000000 0.000000 0.000000
usemtl 191,191,191
f 5/1/1 7/2/2 13/4/4
f 13/4/4 7/2/2 15/3/3
f 1/5/5 5/6/6 9/8/8
f 9/8/8 5/6/6 13/7/7
f 3/9/9 1/10/10 11/12/12
f 11/12/12 1/10/10 9/11/11
f 7/13/13 3/14/14 15/16/16
f 15/16/16 3/14/14 11/15/15
f 15/17/17 11/18/18 13/20/20
f 13/20/20 11/18/18 9/19/19
f 7/22/22 5/23/23 3/21/21
f 3/21/21 5/23/23 1/24/24
f 6/25/25 2/26/26 14/28/28
f 14/28/28 2/26/26 10/27/27
f 8/29/29 6/30/30 16/32/32
f 16/32/32 6/30/30 14/31/31
f 4/33/33 8/34/34 12/36/36
f 12/36/36 8/34/34 16/35/35
f 2/37/37 4/38/38 10/40/40
f 10/40/40 4/38/38 12/39/39
f 10/41/41 12/42/42 14/44/44
f 14/44/44 12/42/42 16/43/43
f 2/46/46 6/47/47 4/45/45
f 4/45/45 6/47/47 8/48/48

# 16 vertices
# 48 texture params
# 48 normals
# 24 facets

# 1 groups
