# WaveFront *.obj file (generated by Autodesk ATF)

mtllib WindowGlass.mtl

g Solid2

v 0.100000 0.000000 -16.000000
v 0.100000 0.000000 -12.100000
v 0.100000 0.000000 -11.900000
v 0.100000 0.000000 -8.100000
v 0.100000 0.000000 -7.900000
v 0.100000 0.000000 -4.100000
v 0.100000 0.000000 -3.900010
v 0.100000 0.000000 0.000000
v 0.100000 7.000000 -16.000000
v 0.100000 7.000000 -12.100000
v 0.100000 7.000000 -11.900000
v 0.100000 7.000000 -8.100000
v 0.100000 7.000000 -7.900000
v 0.100000 7.000000 -4.100000
v 0.100000 7.000000 -3.900010
v 0.100000 7.000000 0.000000
v 0.400000 0.000000 -16.000000
v 0.400000 0.000000 -12.100000
v 0.400000 0.000000 -11.900000
v 0.400000 0.000000 -8.100000
v 0.400000 0.000000 -7.900000
v 0.400000 0.000000 -4.100000
v 0.400000 0.000000 -3.900010
v 0.400000 0.000000 0.000000
v 0.400000 7.000000 -16.000000
v 0.400000 7.000000 -12.100000
v 0.400000 7.000000 -11.900000
v 0.400000 7.000000 -8.100000
v 0.400000 7.000000 -7.900000
v 0.400000 7.000000 -4.100000
v 0.400000 7.000000 -3.900010
v 0.400000 7.000000 0.000000
vt 195.000000 -350.000000 0.000000
vt 195.000000 350.000000 0.000000
vt -195.000000 350.000000 0.000000
vt -195.000000 -350.000000 0.000000
vt 0.000000 10.000000 0.000000
vt 390.000000 10.000000 0.000000
vt 390.000000 40.000000 0.000000
vt 0.000000 40.000000 0.000000
vt 0.000000 10.000000 0.000000
vt 700.000000 10.000000 0.000000
vt 700.000000 40.000000 0.000000
vt 0.000000 40.000000 0.000000
vt 0.000000 10.000000 0.000000
vt 700.000000 10.000000 0.000000
vt 700.000000 40.000000 0.000000
vt 0.000000 40.000000 0.000000
vt 0.000000 10.000000 0.000000
vt 390.000000 10.000000 0.000000
vt 390.000000 40.000000 0.000000
vt 0.000000 40.000000 0.000000
vt -195.000000 -350.000000 0.000000
vt 195.000000 -350.000000 0.000000
vt 195.000000 350.000000 0.000000
vt -195.000000 350.000000 0.000000
vt 195.000504 350.000000 0.000000
vt -195.000504 350.000000 0.000000
vt -195.000504 -350.000000 0.000000
vt 195.000504 -350.000000 0.000000
vt 0.000000 10.000000 0.000000
vt 700.000000 10.000000 0.000000
vt 700.000000 40.000000 0.000000
vt 0.000000 40.000000 0.000000
vt 0.000000 10.000000 0.000000
vt 390.001007 10.000000 0.000000
vt 390.001007 40.000000 0.000000
vt 0.000000 40.000000 0.000000
vt 0.000000 10.000000 0.000000
vt 390.001007 10.000000 0.000000
vt 390.001007 40.000000 0.000000
vt 0.000000 40.000000 0.000000
vt 0.000000 10.000000 0.000000
vt 700.000000 10.000000 0.000000
vt 700.000000 40.000000 0.000000
vt 0.000000 40.000000 0.000000
vt -195.000504 350.000000 0.000000
vt -195.000504 -350.000000 0.000000
vt 195.000504 -350.000000 0.000000
vt 195.000504 350.000000 0.000000
vt -190.000000 -350.000000 0.000000
vt 190.000000 -350.000000 0.000000
vt 190.000000 350.000000 0.000000
vt -190.000000 350.000000 0.000000
vt 0.000000 10.000000 0.000000
vt 700.000000 10.000000 0.000000
vt 700.000000 40.000000 0.000000
vt 0.000000 40.000000 0.000000
vt 0.000000 10.000000 0.000000
vt 380.000000 10.000000 0.000000
vt 380.000000 40.000000 0.000000
vt 0.000000 40.000000 0.000000
vt 0.000000 10.000000 0.000000
vt 700.000000 10.000000 0.000000
vt 700.000000 40.000000 0.000000
vt 0.000000 40.000000 0.000000
vt 0.000000 10.000000 0.000000
vt 380.000000 10.000000 0.000000
vt 380.000000 40.000000 0.000000
vt 0.000000 40.000000 0.000000
vt 190.000000 350.000000 0.000000
vt -190.000000 350.000000 0.000000
vt -190.000000 -350.000000 0.000000
vt 190.000000 -350.000000 0.000000
vt -190.000000 -350.000000 0.000000
vt 190.000000 -350.000000 0.000000
vt 190.000000 350.000000 0.000000
vt -190.000000 350.000000 0.000000
vt 0.000000 10.000000 0.000000
vt 700.000000 10.000000 0.000000
vt 700.000000 40.000000 0.000000
vt 0.000000 40.000000 0.000000
vt 0.000000 10.000000 0.000000
vt 380.000000 10.000000 0.000000
vt 380.000000 40.000000 0.000000
vt 0.000000 40.000000 0.000000
vt 0.000000 10.000000 0.000000
vt 700.000000 10.000000 0.000000
vt 700.000000 40.000000 0.000000
vt 0.000000 40.000000 0.000000
vt 0.000000 10.000000 0.000000
vt 380.000000 10.000000 0.000000
vt 380.000000 40.000000 0.000000
vt 0.000000 40.000000 0.000000
vt 190.000000 350.000000 0.000000
vt -190.000000 350.000000 0.000000
vt -190.000000 -350.000000 0.000000
vt 190.000000 -350.000000 0.000000
vn -100.000000 0.000000 0.000000
vn -100.000000 0.000000 0.000000
vn -100.000000 0.000000 0.000000
vn -100.000000 0.000000 0.000000
vn 0.000000 100.000000 0.000000
vn 0.000000 100.000000 0.000000
vn 0.000000 100.000000 0.000000
vn 0.000000 100.000000 0.000000
vn 0.000000 0.000000 100.000000
vn 0.000000 0.000000 100.000000
vn 0.000000 0.000000 100.000000
vn 0.000000 0.000000 100.000000
vn 0.000000 0.000000 -100.000000
vn 0.000000 0.000000 -100.000000
vn 0.000000 0.000000 -100.000000
vn 0.000000 0.000000 -100.000000
vn 0.000000 -100.000000 0.000000
vn 0.000000 -100.000000 0.000000
vn 0.000000 -100.000000 0.000000
vn 0.000000 -100.000000 0.000000
vn 100.000000 0.000000 0.000000
vn 100.000000 0.000000 0.000000
vn 100.000000 0.000000 0.000000
vn 100.000000 0.000000 0.000000
vn -100.000000 0.000000 0.000000
vn -100.000000 0.000000 0.000000
vn -100.000000 0.000000 0.000000
vn -100.000000 0.000000 0.000000
vn 0.000000 0.000000 -100.000000
vn 0.000000 0.000000 -100.000000
vn 0.000000 0.000000 -100.000000
vn 0.000000 0.000000 -100.000000
vn 0.000000 100.000000 0.000000
vn 0.000000 100.000000 0.000000
vn 0.000000 100.000000 0.000000
vn 0.000000 100.000000 0.000000
vn 0.000000 -100.000000 0.000000
vn 0.000000 -100.000000 0.000000
vn 0.000000 -100.000000 0.000000
vn 0.000000 -100.000000 0.000000
vn 0.000000 0.000000 100.000000
vn 0.000000 0.000000 100.000000
vn 0.000000 0.000000 100.000000
vn 0.000000 0.000000 100.000000
vn 100.000000 0.000000 0.000000
vn 100.000000 0.000000 0.000000
vn 100.000000 0.000000 0.000000
vn 100.000000 0.000000 0.000000
vn -100.000000 0.000000 0.000000
vn -100.000000 0.000000 0.000000
vn -100.000000 0.000000 0.000000
vn -100.000000 0.000000 0.000000
vn 0.000000 0.000000 100.000000
vn 0.000000 0.000000 100.000000
vn 0.000000 0.000000 100.000000
vn 0.000000 0.000000 100.000000
vn 0.000000 -100.000000 0.000000
vn 0.000000 -100.000000 0.000000
vn 0.000000 -100.000000 0.000000
vn 0.000000 -100.000000 0.000000
vn 0.000000 0.000000 -100.000000
vn 0.000000 0.000000 -100.000000
vn 0.000000 0.000000 -100.000000
vn 0.000000 0.000000 -100.000000
vn 0.000000 100.000000 0.000000
vn 0.000000 100.000000 0.000000
vn 0.000000 100.000000 0.000000
vn 0.000000 100.000000 0.000000
vn 100.000000 0.000000 0.000000
vn 100.000000 0.000000 0.000000
vn 100.000000 0.000000 0.000000
vn 100.000000 0.000000 0.000000
vn -100.000000 0.000000 0.000000
vn -100.000000 0.000000 0.000000
vn -100.000000 0.000000 0.000000
vn -100.000000 0.000000 0.000000
vn 0.000000 0.000000 100.000000
vn 0.000000 0.000000 100.000000
vn 0.000000 0.000000 100.000000
vn 0.000000 0.000000 100.000000
vn 0.000000 -100.000000 0.000000
vn 0.000000 -100.000000 0.000000
vn 0.000000 -100.000000 0.000000
vn 0.000000 -100.000000 0.000000
vn 0.000000 0.000000 -100.000000
vn 0.000000 0.000000 -100.000000
vn 0.000000 0.000000 -100.000000
vn 0.000000 0.000000 -100.000000
vn 0.000000 100.000000 0.000000
vn 0.000000 100.000000 0.000000
vn 0.000000 100.000000 0.000000
vn 0.000000 100.000000 0.000000
vn 100.000000 0.000000 0.000000
vn 100.000000 0.000000 0.000000
vn 100.000000 0.000000 0.000000
vn 100.000000 0.000000 0.000000
usemtl 191,191,191
f 10/2/2 9/3/3 2/1/1
f 2/1/1 9/3/3 1/4/4
f 9/5/5 10/6/6 25/8/8
f 25/8/8 10/6/6 26/7/7
f 10/9/9 2/10/10 26/12/12
f 26/12/12 2/10/10 18/11/11
f 1/13/13 9/14/14 17/16/16
f 17/16/16 9/14/14 25/15/15
f 2/17/17 1/18/18 18/20/20
f 18/20/20 1/18/18 17/19/19
f 18/21/21 17/22/22 26/24/24
f 26/24/24 17/22/22 25/23/23
f 16/25/25 15/26/26 8/28/28
f 8/28/28 15/26/26 7/27/27
f 7/29/29 15/30/30 23/32/32
f 23/32/32 15/30/30 31/31/31
f 15/33/33 16/34/34 31/36/36
f 31/36/36 16/34/34 32/35/35
f 8/37/37 7/38/38 24/40/40
f 24/40/40 7/38/38 23/39/39
f 16/41/41 8/42/42 32/44/44
f 32/44/44 8/42/42 24/43/43
f 24/46/46 23/47/47 32/45/45
f 32/45/45 23/47/47 31/48/48
f 3/49/49 4/50/50 11/52/52
f 11/52/52 4/50/50 12/51/51
f 12/53/53 4/54/54 28/56/56
f 28/56/56 4/54/54 20/55/55
f 4/57/57 3/58/58 20/60/60
f 20/60/60 3/58/58 19/59/59
f 3/61/61 11/62/62 19/64/64
f 19/64/64 11/62/62 27/63/63
f 11/65/65 12/66/66 27/68/68
f 27/68/68 12/66/66 28/67/67
f 27/69/69 28/70/70 19/72/72
f 19/72/72 28/70/70 20/71/71
f 5/73/73 6/74/74 13/76/76
f 13/76/76 6/74/74 14/75/75
f 14/77/77 6/78/78 30/80/80
f 30/80/80 6/78/78 22/79/79
f 6/81/81 5/82/82 22/84/84
f 22/84/84 5/82/82 21/83/83
f 5/85/85 13/86/86 21/88/88
f 21/88/88 13/86/86 29/87/87
f 13/89/89 14/90/90 29/92/92
f 29/92/92 14/90/90 30/91/91
f 29/93/93 30/94/94 21/96/96
f 21/96/96 30/94/94 22/95/95

# 32 vertices
# 96 texture params
# 96 normals
# 48 facets

# 1 groups
